<svg width="400" height="300" xmlns="http://www.w3.org/2000/svg">
  <rect width="400" height="300" fill="#2d3436"/>
  
  <!-- Seven children holding colorful speech bubbles -->
  <g transform="translate(20, 120)">
    <!-- Child 1 -->
    <ellipse cx="25" cy="-30" rx="20" ry="25" fill="#d4a373"/>
    <rect x="10" y="-5" width="30" height="40" rx="5" fill="#ff6b6b"/>
    <ellipse cx="25" cy="-70" rx="25" ry="20" fill="#ff1744"/>
    
    <!-- Child 2 -->
    <ellipse cx="75" cy="-30" rx="20" ry="25" fill="#c9a77c"/>
    <rect x="60" y="-5" width="30" height="40" rx="5" fill="#4ecdc4"/>
    <ellipse cx="75" cy="-70" rx="25" ry="20" fill="#00bcd4"/>
    
    <!-- Child 3 -->
    <ellipse cx="125" cy="-30" rx="20" ry="25" fill="#d4a373"/>
    <rect x="110" y="-5" width="30" height="40" rx="5" fill="#ffb74d"/>
    <ellipse cx="125" cy="-70" rx="25" ry="20" fill="#ffa726"/>
    
    <!-- Child 4 -->
    <ellipse cx="175" cy="-30" rx="20" ry="25" fill="#e8b896"/>
    <rect x="160" y="-5" width="30" height="40" rx="5" fill="#9575cd"/>
    <ellipse cx="175" cy="-70" rx="25" ry="20" fill="#7e57c2"/>
    
    <!-- Child 5 -->
    <ellipse cx="225" cy="-30" rx="20" ry="25" fill="#d4a373"/>
    <rect x="210" y="-5" width="30" height="40" rx="5" fill="#ff6b6b"/>
    <ellipse cx="225" cy="-70" rx="25" ry="20" fill="#00ff00"/>
    
    <!-- Child 6 -->
    <ellipse cx="275" cy="-30" rx="20" ry="25" fill="#c9a77c"/>
    <rect x="260" y="-5" width="30" height="40" rx="5" fill="#ffd54f"/>
    <ellipse cx="275" cy="-70" rx="25" ry="20" fill="#f57c00"/>
    
    <!-- Child 7 -->
    <ellipse cx="325" cy="-30" rx="20" ry="25" fill="#e8b896"/>
    <rect x="310" y="-5" width="30" height="40" rx="5" fill="#ef5350"/>
    <ellipse cx="325" cy="-70" rx="25" ry="20" fill="#2196f3"/>
  </g>
  
  <text x="200" y="280" font-family="Arial" font-size="16" fill="#fff" text-anchor="middle">
    Happy Children Learning Together
  </text>
</svg>
